/* XPM */
static char *player[] = {
/* columns rows colors chars-per-pixel */
"64 64 8 1",
"  c black",
". c #060608",
"X c #AC3232",
"o c #DF7126",
"O c #847E87",
"+ c #9BADB7",
"@ c gray100",
"# c #514047",
/* pixels */
"####################............################################",
"####################............################################",
"####################............################################",
"####################............################################",
"####################....XXXXXXXX....############################",
"####################....XXXXXXXX....############################",
"####################....XXXXXXXX....############################",
"####################....XXXXXXXX....############################",
"########################....OOOO................################",
"########################....OOOO................################",
"########################....OOOO................################",
"########################....OOOO................################",
"####################....OOOOOOOO++++++++++++++++....############",
"####################....OOOOOOOO++++++++++++++++....############",
"####################....OOOOOOOO++++++++++++++++....############",
"####################....OOOOOOOO++++++++++++++++....############",
"################....OOOO++++++++++++++++++++++++....############",
"################....OOOO++++++++++++++++++++++++....############",
"################....OOOO++++++++++++++++++++++++....############",
"################....OOOO++++++++++++++++++++++++....############",
"################....++++++++@@@@@@@@@@@@@@@@@@@@....############",
"################....++++++++@@@@@@@@@@@@@@@@@@@@....############",
"################....++++++++@@@@@@@@@@@@@@@@@@@@....############",
"################....++++++++@@@@@@@@@@@@@@@@@@@@....############",
"################....++++++++@@@@....................############",
"################....++++++++@@@@....................############",
"################....++++++++@@@@....................############",
"################....++++++++@@@@....................############",
"################....OOOO++++@@@@@@@@@@@@....@@@@....############",
"################....OOOO++++@@@@@@@@@@@@....@@@@....############",
"################....OOOO++++@@@@@@@@@@@@....@@@@....############",
"################....OOOO++++@@@@@@@@@@@@....@@@@....############",
"################........OOOOOOOOXXXXXXXXooooXXXX....############",
"################........OOOOOOOOXXXXXXXXooooXXXX....############",
"################........OOOOOOOOXXXXXXXXooooXXXX....############",
"################........OOOOOOOOXXXXXXXXooooXXXX....############",
"####################....XXXXXXXXOOOOOOOOOOOOOOOO....############",
"####################....XXXXXXXXOOOOOOOOOOOOOOOO....############",
"####################....XXXXXXXXOOOOOOOOOOOOOOOO....############",
"####################....XXXXXXXXOOOOOOOOOOOOOOOO....############",
"################XXXX....OOOOOOOO++++++++++++++++....############",
"################XXXX....OOOOOOOO++++++++++++++++....############",
"################XXXX....OOOOOOOO++++++++++++++++....############",
"################XXXX....OOOOOOOO++++++++++++++++....############",
"############XXXXXXXX....OOOOOOOO............OOOO....############",
"############XXXXXXXX....OOOOOOOO............OOOO....############",
"############XXXXXXXX....OOOOOOOO............OOOO....############",
"############XXXXXXXX....OOOOOOOO............OOOO....############",
"############XXXXXXXX....OOOO....XXXX....OOOO....################",
"############XXXXXXXX....OOOO....XXXX....OOOO....################",
"############XXXXXXXX....OOOO....XXXX....OOOO....################",
"############XXXXXXXX....OOOO....XXXX....OOOO....################",
"####################........########........####################",
"####################........########........####################",
"####################........########........####################",
"####################........########........####################",
"################################################################",
"################################################################",
"################################################################",
"################################################################",
"################################################################",
"################################################################",
"################################################################",
"################################################################"
};
