/* XPM */
static char *wall[] = {
/* columns rows colors chars-per-pixel */
"64 64 5 1",
"  c #181425",
". c #514047",
"X c gray47",
"o c gray64",
"O c gray100",
/* pixels */
"............OOOO................................OOOO............",
"............OOOO................................OOOO............",
"............OOOO................................OOOO............",
"............OOOO................................OOOO............",
"............OOOO................................OOOO............",
"............OOOO................................OOOO............",
"............OOOO................................OOOO............",
"............OOOO................................OOOO............",
"........OOOOooooXXXX........................OOOOooooXXXX........",
"........OOOOooooXXXX........................OOOOooooXXXX........",
"........OOOOooooXXXX........................OOOOooooXXXX........",
"........OOOOooooXXXX........................OOOOooooXXXX........",
"........oooooooooooo........................oooooooooooo........",
"........oooooooooooo........................oooooooooooo........",
"........oooooooooooo........................oooooooooooo........",
"........oooooooooooo........................oooooooooooo........",
"........oooooooooooo........................oooooooooooo........",
"........oooooooooooo........................oooooooooooo........",
"........oooooooooooo........................oooooooooooo........",
"........oooooooooooo........................oooooooooooo........",
"....XXXXooooooooXXXXXXXX................XXXXooooooooXXXXXXXX....",
"....XXXXooooooooXXXXXXXX................XXXXooooooooXXXXXXXX....",
"....XXXXooooooooXXXXXXXX................XXXXooooooooXXXXXXXX....",
"....XXXXooooooooXXXXXXXX................XXXXooooooooXXXXXXXX....",
"....        XXXX        ................        XXXX        ....",
"....        XXXX        ................        XXXX        ....",
"....        XXXX        ................        XXXX        ....",
"....        XXXX        ................        XXXX        ....",
"........            ........................            ........",
"........            ........................            ........",
"........            ........................            ........",
"........            ........................            ........",
"............OOOO................................OOOO............",
"............OOOO................................OOOO............",
"............OOOO................................OOOO............",
"............OOOO................................OOOO............",
"............OOOO................................OOOO............",
"............OOOO................................OOOO............",
"............OOOO................................OOOO............",
"............OOOO................................OOOO............",
"........OOOOooooXXXX........................OOOOooooXXXX........",
"........OOOOooooXXXX........................OOOOooooXXXX........",
"........OOOOooooXXXX........................OOOOooooXXXX........",
"........OOOOooooXXXX........................OOOOooooXXXX........",
"........oooooooooooo........................oooooooooooo........",
"........oooooooooooo........................oooooooooooo........",
"........oooooooooooo........................oooooooooooo........",
"........oooooooooooo........................oooooooooooo........",
"........oooooooooooo........................oooooooooooo........",
"........oooooooooooo........................oooooooooooo........",
"........oooooooooooo........................oooooooooooo........",
"........oooooooooooo........................oooooooooooo........",
"....XXXXooooooooXXXXXXXX................XXXXooooooooXXXXXXXX....",
"....XXXXooooooooXXXXXXXX................XXXXooooooooXXXXXXXX....",
"....XXXXooooooooXXXXXXXX................XXXXooooooooXXXXXXXX....",
"....XXXXooooooooXXXXXXXX................XXXXooooooooXXXXXXXX....",
"....        XXXX        ................        XXXX        ....",
"....        XXXX        ................        XXXX        ....",
"....        XXXX        ................        XXXX        ....",
"....        XXXX        ................        XXXX        ....",
"........            ........................            ........",
"........            ........................            ........",
"........            ........................            ........",
"........            ........................            ........"
};
